<svg id="Capa_1" data-name="Capa 1" xmlns="http://www.w3.org/2000/svg" viewBox="0 0 37 37"><defs><style>.cls-1{fill:#424242;}.cls-2{fill:#fff;}</style></defs><circle class="cls-1" cx="18.5" cy="18.5" r="18.5"/><path class="cls-2" d="M32,25.33c0-.13,0-.14-.15-.15H29.13l-.26,0V22.3c0-.13,0-.15-.17-.15H26.83c-.12,0-.14,0-.15.14v2.89H23.76c-.19,0-.2,0-.21.2,0,.59,0,1.18,0,1.77,0,0,0,.09,0,.16h3.11v3h2.19V27.45c0-.11,0-.13.15-.14h3a.65.65,0,0,0,0-.11Z"/><path class="cls-2" d="M7.25,26.62v-5.7a8.52,8.52,0,0,1,1.16-.09c.59,0,1.84.2,1.84.2h.13l.35,0,.32.06.22,0,.28,0,.21,0,.53.11.31.07.38.09.49.12.47.13.31.08.29.09.15.05.65.21c.13,0,.25.07.37.12l.62.23.25.09v0c0,.12,0,.24,0,.37s0,.23-.05.34,0,.3-.07.45h0c0,.14,0,.27,0,.41a1.55,1.55,0,0,1,0,.21.07.07,0,0,1,0,.05l-.54.31a2.09,2.09,0,0,1-.35.13.69.69,0,0,0-.32.16.3.3,0,0,0,0,.45.77.77,0,0,0,.27.17,1.63,1.63,0,0,0,.42.11,3,3,0,0,0,.67,0h.34l.27-.06.13,0a1.62,1.62,0,0,0,.52-.23l1.24-.77.9-.57a.15.15,0,0,1,.18,0l.43.23c.22.12.45.23.67.36l.77.44.49-.37-.27-.16-1.05-.59-.46-.24-.1-.06.56-.37c.27-.18.55-.34.81-.52a1.56,1.56,0,0,0,.54-.6.86.86,0,0,0,.06-.23.47.47,0,0,0-.26-.45.89.89,0,0,0-.37-.11l-.11,0a1.41,1.41,0,0,0-.35.05,1.25,1.25,0,0,0-.27.1l-.28.15-.11-.13L20.14,21l-.38-.46L19.34,20l-.06-.07a.1.1,0,0,1,0-.06l.6-.72a1,1,0,0,0,.19-.38.78.78,0,0,0,0-.37.91.91,0,0,0-.35-.6,1.12,1.12,0,0,0-.33-.16h-.34a.76.76,0,0,0-.44.16,1,1,0,0,0-.31.37l-.45.78c-.15.28-.3.57-.46.85l-.37.66c-.08.16-.17.32-.25.49a.79.79,0,0,0-.05.22l-.06.33v0c0,.12,0,.24,0,.36l0,.2c-.08,0-.13,0-.2,0l-.26-.09L16,21.86l-.37-.13-.4-.14-.29-.08-.25-.08-.43-.13-.35-.1-.2-.05-.19-.06-.16,0L13,21l-.19-.05-.29-.06-.25-.07-.17,0-.27-.05-.27,0h0l-.3,0L11,20.57l-.27-.05-.36-.05h-.08a15.67,15.67,0,0,0-2.09-.32l-.91-.06V18a.19.19,0,0,0,0-.07v-6.8c0-.3,0-.3.3-.3h18c.32,0,.31.06.31.32v8.58a.14.14,0,0,0,0,.06V21.2H28V10h0V9.9a1,1,0,0,0,0-.17A2,2,0,0,0,28,9.29s0,0,0,0l-.05-.09a.88.88,0,0,0-.82-.47H6a.83.83,0,0,0-.38.07A.89.89,0,0,0,5,9.49,4.41,4.41,0,0,0,5,10V27.78H5v.29a1.56,1.56,0,0,0,.07.44s0,0,0,.05a.36.36,0,0,0,0,.09.88.88,0,0,0,.82.47H22.6v-2.2h-15C7.24,26.94,7.25,26.88,7.25,26.62Zm10.42-4.39a1.05,1.05,0,0,0,0-.19,1.17,1.17,0,0,0,.05-.2c0-.1,0-.19.07-.28a.61.61,0,0,1,.07-.14l.59-.66.07-.07.07.06c.11.12.22.23.34.34l.62.6.47.45.05.06a.57.57,0,0,1-.22.16l-.64.37-.38.23a.15.15,0,0,1-.13,0l-.58-.26-.49-.21-.07,0Zm-.39,1.44c0-.15.08-.3.13-.46s0-.11,0-.16,0,0,.08,0l.17.07.45.21.09,0-1,.62C17.23,23.85,17.25,23.76,17.28,23.67Z"/><path class="cls-2" d="M21.61,23.34l-.13,0a.42.42,0,0,0-.16.58.21.21,0,0,0,.13.13.3.3,0,0,0,.21,0,.49.49,0,0,0,.15-.1.44.44,0,0,0,0-.53A.26.26,0,0,0,21.61,23.34Z"/><path class="cls-2" d="M17.93,25.6a.38.38,0,0,0-.31.26.61.61,0,0,0,0,.3.32.32,0,0,0,.31.24l.1,0a.44.44,0,0,0,.27-.37.4.4,0,0,0,0-.19A.34.34,0,0,0,17.93,25.6Z"/><path class="cls-2" d="M23,16.38l-.23-.11-.8-.38-.74-.34-.4-.19-.19-.08-.49-.1-.35-.07L19.5,15,19.15,15l-.54-.11-.2,0a.6.6,0,0,0-.32.07.76.76,0,0,0-.47.7.66.66,0,0,0,.06.27.73.73,0,0,0,.67.46c.29,0,.59,0,.88,0s.46,0,.7,0l.46,0h.14l.23.08.25.08.27.09.39.13.37.12c.13,0,.25.09.38.12l.34.1a.33.33,0,0,0,.34-.09A.31.31,0,0,0,23,16.38Z"/><path class="cls-2" d="M16,14.17a1,1,0,1,0,0,2,1,1,0,0,0,1-1A1,1,0,0,0,16,14.17Z"/><path class="cls-2" d="M17.5,14.35a1.06,1.06,0,0,1,.47,0l.16,0s0-.06,0-.08L18,14.11l-.52-.68c-.1-.13-.19-.26-.3-.38l-.55-.55-.74-.74a3.31,3.31,0,0,0-.27-.26.32.32,0,0,0-.34-.05.3.3,0,0,0-.11.45c.09.11.17.23.25.35l.26.33L16,13l.36.45a2.17,2.17,0,0,1,.32.47,3.89,3.89,0,0,0,.19.42l.11.2.37-.15A1.13,1.13,0,0,1,17.5,14.35Z"/></svg>