<svg id="Capa_1" data-name="Capa 1" xmlns="http://www.w3.org/2000/svg" viewBox="0 0 37 37"><defs><style>.cls-1{fill:#424242;}</style></defs><path class="cls-1" d="M18.5,0A18.5,18.5,0,1,0,37,18.5,18.5,18.5,0,0,0,18.5,0ZM23,26c-.43,0-.8.42-.94,1H19.5V26h-2v1H14.94c-.14-.58-.51-1-.94-1a.93.93,0,0,0-.23,0V11A.93.93,0,0,0,14,11c.43,0,.8-.42.94-1H17.5v1h2V10h2.56c.14.58.51,1,.94,1a.93.93,0,0,0,.23,0V26A.93.93,0,0,0,23,26ZM18.5,1c3.24,0,4.67,1.93,4.72,7A.78.78,0,0,0,23,8c-.43,0-.8.42-.94,1H19.5V8h-2V9H14.94c-.14-.58-.51-1-.94-1a.93.93,0,0,0-.23,0V7.82C13.77,4,15.2,1,18.5,1Zm.36,35c-3.82,0-4.95-3.15-5.08-7A.57.57,0,0,0,14,29c.43,0,.8-.42.94-1H17.5v1h2V28h2.56c.14.58.51,1,.94,1a.93.93,0,0,0,.23,0C23.22,32.09,22.87,36,18.86,36Z"/></svg>