<?xml version="1.0" standalone="no"?>
<!DOCTYPE svg PUBLIC "-//W3C//DTD SVG 20010904//EN"
 "http://www.w3.org/TR/2001/REC-SVG-20010904/DTD/svg10.dtd">
<svg version="1.0" xmlns="http://www.w3.org/2000/svg"
 width="1356.000000pt" height="4978.000000pt" viewBox="0 0 1356.000000 4978.000000"
 preserveAspectRatio="xMidYMid meet">

<g transform="translate(0.000000,4978.000000) scale(0.100000,-0.100000)"
fill="#000000" stroke="none">
<path d="M6374 49769 c-1307 -60 -2418 -427 -3289 -1089 -283 -215 -624 -537
-850 -802 -442 -521 -823 -1145 -1145 -1878 -570 -1297 -880 -3412 -980 -6685
-22 -713 -31 -1454 -40 -3230 -5 -1017 -14 -2257 -20 -2755 -70 -6358 -59
-12650 35 -20055 38 -2959 50 -3571 90 -4410 95 -1981 322 -3421 724 -4596
490 -1431 1320 -2570 2396 -3289 286 -192 687 -403 1005 -530 976 -391 2168
-533 3345 -399 726 82 1365 264 1971 559 568 276 1020 597 1460 1035 513 512
905 1077 1260 1820 601 1255 931 2940 1049 5350 42 872 54 1452 90 4430 95
7804 105 13699 35 20090 -6 501 -15 1740 -20 2755 -9 1771 -18 2511 -40 3225
-100 3273 -410 5388 -980 6685 -322 733 -703 1357 -1145 1878 -140 163 -477
500 -625 623 -712 592 -1493 957 -2445 1143 -570 111 -1228 155 -1881 125z
m801 -59 c1920 -93 3311 -791 4353 -2185 368 -491 730 -1145 973 -1752 471
-1181 759 -3114 869 -5843 38 -942 50 -1667 60 -3705 5 -1012 14 -2254 20
-2760 71 -6491 61 -12452 -35 -20325 -35 -2895 -48 -3499 -90 -4345 -134
-2672 -512 -4388 -1263 -5735 -418 -751 -956 -1381 -1583 -1857 -357 -271
-841 -542 -1259 -706 -943 -370 -2031 -508 -3165 -402 -1757 165 -3179 965
-4162 2342 -1056 1480 -1539 3427 -1673 6733 -28 701 -51 1979 -80 4370 -91
7601 -100 13564 -30 19920 6 503 15 1745 20 2760 10 2045 22 2768 60 3710 96
2363 320 4102 685 5310 123 407 248 716 461 1141 913 1829 2195 2859 3994
3208 551 107 1224 151 1845 121z"/>
</g>
</svg>
